<?xml version="1.0" encoding="utf-8"?>
<!-- Generator: Adobe Illustrator 19.1.0, SVG Export Plug-In . SVG Version: 6.00 Build 0)  -->
<svg version="1.1"
	 id="svg4059" inkscape:version="0.48.1 r9760" sodipodi:docname="bat_v2_black.svg" inkscape:export-filename="/mnt/pandem0nium/pub/incoming/bat_logo_v2/bat_v2_black.png" xmlns:cc="http://creativecommons.org/ns#" xmlns:dc="http://purl.org/dc/elements/1.1/" xmlns:inkscape="http://www.inkscape.org/namespaces/inkscape" xmlns:sodipodi="http://sodipodi.sourceforge.net/DTD/sodipodi-0.dtd" xmlns:rdf="http://www.w3.org/1999/02/22-rdf-syntax-ns#" xmlns:svg="http://www.w3.org/2000/svg" inkscape:export-ydpi="90" inkscape:export-xdpi="90"
	 xmlns="http://www.w3.org/2000/svg" xmlns:xlink="http://www.w3.org/1999/xlink" x="0px" y="0px" viewBox="-166.7 221 916.2 359.6"
	 style="enable-background:new -166.7 221 916.2 359.6;" xml:space="preserve">
<sodipodi:namedview  fit-margin-right="0" inkscape:window-maximized="0" inkscape:current-layer="layer2" inkscape:pageshadow="2" fit-margin-bottom="0" inkscape:pageopacity="0" inkscape:window-y="0" inkscape:window-width="956" inkscape:snap-nodes="true" inkscape:window-x="1920" inkscape:window-height="1173" id="namedview9" borderopacity="1" fit-margin-top="0" guidetolerance="10" showgrid="false" inkscape:zoom="0.88204281" gridtolerance="10" inkscape:cx="466.24453" objecttolerance="10" fit-margin-left="0" inkscape:cy="37.028713">
	</sodipodi:namedview>
<g id="layer3" transform="translate(6.26672, 5.9375)" inkscape:groupmode="layer" inkscape:label="outline" style="display:none;">
	<path id="path3993-5" inkscape:connector-curvature="0" style="display:inline;" d="M310.2,211.8c-6.1,48.6-35.3,91-69.2,124.9
		c-21.8,21.4-47,39.4-75.3,51.2c5.6-19.3,1-41-11.5-56.6c2.5-29.9,0.7-60-2.5-89.8c-16,19.3-27.8,41.5-37.5,64.5
		c-12.2-3.2-25.7-2.4-37.7,0.5c-9.6-17.4-23-32.4-38.8-44.4c-3.3,23.5-2.6,47.6,0.2,70.9c-6.7,8.8-11.3,19.4-12.1,30.5
		c-1.9,1.3-3.1,3.5-4.7,0.4c-20.8-21.1-32.6-48.8-44.9-75.3c-14.9,73-54,137.5-93.5,199.6c-20.5,31.2-42.4,61.4-64.1,91.9
		c8.1,2.3,14.4-5.2,21.4-7.8c48.1-26,95-58,149.8-67.7c7.7-1.2,15.7-1.7,23.5-1.6C13.2,489,25.7,477,39.7,478.3
		c13-0.1,25.2,5.1,36.7,10.8c3.1-8.9,9.6-16,17.8-20.2c16,27.5,46.3,43,75.7,52.8c10.3,3.5,21.9,5.3,32,7.5
		c-0.7,8.3,2.6,18.6,11.7,20.6c7.8-6.2,13.8-15.3,22.6-19.7c10.9-0.8,21.8-2.6,32.2-6c8.2,6.1,18.2,13.3,29,9.8
		c0.2-7.8-2.2-15.6-1.2-23.3c14.6-14.3,28.5-29.6,39.8-46.7c-31.9,0.2-65.4-1.5-93.7-17.4c12.6-0.2,25,3.4,36.1,9.4
		c26.4-12.2,57.5-3.8,81,11.4c5.9,3.6,11.4,7.6,16.5,12.2c36.6-16.9,78.6-15.8,118.1-12.2c88.7,9.4,173.3,44.1,247.5,92.7
		c3.4,1.9,7.2,3,10.8,4.4c-11.8-20.7-29.1-37.3-43.5-56.1c-63-75.5-135.3-143.7-217.2-198.5c-57.2-38.8-118.1-71.8-180.9-100.5
		C310.5,210,310.4,210.9,310.2,211.8z"/>
</g>
<g id="layer2" transform="translate(6.26672, 5.9375)" inkscape:groupmode="layer" inkscape:label="batman-adv">
	<g id="layer1" transform="translate(-51.5312, -495.768)">
		
			<path fill="#fff" id="path3993" sodipodi:nodetypes="ccscccscccccccccccccccccccccc" inkscape:connector-curvature="0" inkscape:export-filename="/home/sven/dokumente/bat_logo_v2.png" inkscape:export-ydpi="90" inkscape:export-xdpi="90" d="
			M365.4,710.8c-8.1,66.9-77.3,151.9-154.9,179.8c3.3-7.4,5.1-15.5,5.1-24c0-14.4-5.2-27.7-14-38.3c2-22,1.8-48.7-1.4-80.6
			c-13,17-23.3,37.8-32.2,58.8c-6.3-1.8-12.9-2.8-19.8-2.8c-7.7,0-15.2,1.2-22.1,3.5c-7.4-13.9-17.5-28.1-33.8-41.6
			c-2.5,23.5-1.6,44.9,1.7,63.7c-8.3,10.5-13.6,23.4-12.1,32.7c-4.4,0.4-5.2,4-5.3,6.9C57.3,852.4,44,829.7,29,796.7
			c-13.3,59-53.4,142.2-150.5,273.8c61.6-33.2,123.8-75.6,182.8-75.8c4.1-25.3,30.1-32.5,64.7-15.2c4.1-9.2,11.8-15.9,21.6-20.2
			c12.9,29.2,60.1,56.2,110.5,61.8c-2.7,10.3,2.5,19.3,6,19.9l20.1-19c12.4-0.6,24.7-2.7,36.4-6.6c8.4,6.4,17.7,12.4,24.2,11
			l-1.7-21.1c13.7-14,23.5-23.1,36.7-41.7c-37.6,0-70.3-4.7-97.8-24.1c14.3-2.9,30.9-1.2,48.1,7.7c48.6-20.6,98,23.2,98,23.2
			c59.4-28.6,217.5-17.6,366.7,81.8C713.2,951.9,608.4,822.8,365.4,710.8z"/>
		<path id="path4001" sodipodi:nodetypes="ccccccc" inkscape:connector-curvature="0" d="M114.4,906.3l6.3,6.1l42.4-3.3l4-10.9
			l-6.1,5.3l-38.9,6L114.4,906.3z"/>
		<path id="path4003" sodipodi:nodetypes="csccccsccssscc" inkscape:connector-curvature="0" d="M131,874c3.7-7.4,3.4-7.8,27.5-14.8
			c15.2-4.5,30.1-9.3,32.4-2.1l18.5-4.9l0.5,3.2l-18.3,6.5c-3.8,22-3.7,19.9-20.7,22c-27.6,3.3-30.3,6.2-39.4-6.1l-7.3,1
			c-3.8,8.3-0.9,8.4-25.5,7.6c-16.2-0.5-14.2-0.2-17.2-15.1c-1.4-6.7-0.3-7.9,21.3-5.2c17.5,2.2,17.2,1.8,21.2,8.9L131,874z"/>
	</g>
</g>
</svg>
