<svg xmlns="http://www.w3.org/2000/svg"><symbol id="icon-chevron-left" viewBox="0 0 48 48"><path d="M30.83 14.83L28 12 16 24l12 12 2.83-2.83L21.66 24z"/></symbol><symbol id="icon-chevron-right" viewBox="0 0 48 48"><path d="M20 12l-2.83 2.83L26.34 24l-9.17 9.17L20 36l12-12z"/></symbol><symbol id="icon-expand-less" viewBox="0 0 48 48"><path d="M24 16L12 28l2.83 2.83L24 21.66l9.17 9.17L36 28z"/></symbol><symbol id="icon-expand-more" viewBox="0 0 48 48"><path d="M33.17 17.17L24 26.34l-9.17-9.17L12 20l12 12 12-12z"/></symbol><symbol id="icon-menu" viewBox="0 0 48 48"><path d="M6 36h36v-4H6v4zm0-10h36v-4H6v4zm0-14v4h36v-4H6z"/></symbol><symbol id="icon-more-vert" viewBox="0 0 48 48"><path d="M24 16c2.21 0 4-1.79 4-4s-1.79-4-4-4-4 1.79-4 4 1.79 4 4 4zm0 4c-2.21 0-4 1.79-4 4s1.79 4 4 4 4-1.79 4-4-1.79-4-4-4zm0 12c-2.21 0-4 1.79-4 4s1.79 4 4 4 4-1.79 4-4-1.79-4-4-4z"/></symbol><symbol id="icon-refresh" viewBox="0 0 48 48"><path d="M35.3 12.7C32.41 9.8 28.42 8 24 8 15.16 8 8.02 15.16 8.02 24S15.16 40 24 40c7.45 0 13.69-5.1 15.46-12H35.3c-1.65 4.66-6.07 8-11.3 8-6.63 0-12-5.37-12-12s5.37-12 12-12c3.31 0 6.28 1.38 8.45 3.55L26 22h14V8l-4.7 4.7z"/></symbol><symbol id="logo" viewBox="0 0 931.48547 370.93994"><path d="M493.142 5.938c-8.056 66.933-77.316 151.944-154.937 179.843 3.277-7.4 5.094-15.492 5.094-24-.002-14.427-5.22-27.7-13.97-38.31 1.97-21.965 1.774-48.678-1.375-80.595-13.002 16.958-23.303 37.766-32.156 58.78-6.274-1.8-12.94-2.78-19.845-2.78-7.734 0-15.177 1.23-22.094 3.47-7.42-13.908-17.47-28.12-33.78-41.595-2.5 23.49-1.593 44.904 1.687 63.656-8.286 10.45-13.635 23.36-12.098 32.685-4.426.36-5.237 4.01-5.32 6.885-19.284-16.497-32.602-39.157-47.583-72.162-13.267 58.99-53.37 142.167-150.5 273.75 61.56-33.225 123.797-75.62 182.813-75.782 4.054-25.33 30.132-32.48 64.656-15.155 4.053-9.206 11.85-15.857 21.594-20.22 12.892 29.17 60.064 56.237 110.53 61.783-2.714 10.315 2.484 19.28 6.032 19.906l20.094-19.03c12.405-.595 24.7-2.704 36.406-6.564 8.394 6.413 17.72 12.38 24.188 10.97l-1.72-21.126c13.748-14.04 23.513-23.14 36.69-41.698-37.61-.033-70.294-4.69-97.845-24.052 14.314-2.875 30.9-1.224 48.094 7.72 48.643-20.647 97.967 23.25 97.967 23.25 59.366-28.552 217.48-17.58 366.688 81.81-81.51-100.353-186.35-229.51-429.313-341.436z" overflow="visible"/><path fill="currentColor" d="M258.774 169.078c3.736-7.353 3.373-7.754 27.47-14.847 15.16-4.46 30.114-9.257 32.382-2.072l18.53-4.868.548 3.174-18.32 6.492c-3.79 21.996-3.666 19.926-20.71 21.97-27.64 3.317-30.33 6.178-39.395-6.06l-7.325 1.01c-3.774 8.342-.876 8.426-25.477 7.632-16.186-.522-14.202-.237-17.228-15.15-1.353-6.67-.338-7.91 21.304-5.15 17.51 2.233 17.194 1.76 21.21 8.922z" overflow="visible"/></symbol></svg>