<svg xmlns="http://www.w3.org/2000/svg"><symbol id="icon-bars" viewBox="0 0 1792 1792"><path d="M1664 1344v128q0 26-19 45t-45 19H192q-26 0-45-19t-19-45v-128q0-26 19-45t45-19h1408q26 0 45 19t19 45zm0-512v128q0 26-19 45t-45 19H192q-26 0-45-19t-19-45V832q0-26 19-45t45-19h1408q26 0 45 19t19 45zm0-512v128q0 26-19 45t-45 19H192q-26 0-45-19t-19-45V320q0-26 19-45t45-19h1408q26 0 45 19t19 45z"/></symbol><symbol id="icon-search" viewBox="0 0 1792 1792"><path d="M1216 832q0-185-131.5-316.5T768 384 451.5 515.5 320 832t131.5 316.5T768 1280t316.5-131.5T1216 832zm512 832q0 52-38 90t-90 38q-54 0-90-38l-343-342q-179 124-399 124-143 0-273.5-55.5t-225-150-150-225T64 832t55.5-273.5 150-225 225-150T768 128t273.5 55.5 225 150 150 225T1472 832q0 220-124 399l343 343q37 37 37 90z"/></symbol></svg>